0
SECTION
2
HEADER
9
$ACADVER
1
AC1009
0
ENDSEC
0
SECTION
2
TABLES
0
TABLE
2
LAYER
70
6
0
LAYER
2
SURVEY
70
0
62
7
6
CONTINUOUS
0
LAYER
2
CONTOURS
70
0
62
7
6
CONTINUOUS
0
LAYER
2
BOUNDARY
70
0
62
7
6
CONTINUOUS
0
LAYER
2
ZERO_Z
70
0
62
7
6
CONTINUOUS
0
LAYER
2
NOTES
70
0
62
7
6
CONTINUOUS
0
LAYER
2
BLOCK_POINTS
70
0
62
7
6
CONTINUOUS
0
ENDTAB
0
ENDSEC
0
SECTION
2
BLOCKS
0
BLOCK
8
BLOCK_POINTS
2
TEST_BLOCK
70
0
10
0
20
0
30
0
3
TEST_BLOCK
1

0
POINT
8
BLOCK_POINTS
10
2
20
3
30
4
0
ENDBLK
8
BLOCK_POINTS
0
ENDSEC
0
SECTION
2
ENTITIES
0
INSERT
8
BLOCK_POINTS
2
TEST_BLOCK
10
30
20
40
30
5
41
1
42
1
43
1
50
90
0
POINT
8
SURVEY
10
0
20
0
30
2
0
POINT
8
SURVEY
10
10
20
0
30
2
0
POINT
8
SURVEY
10
10
20
10
30
4
0
POINT
8
SURVEY
10
0
20
10
30
4
0
POINT
8
SURVEY
10
5
20
5
30
3
0
POLYLINE
8
CONTOURS
66
1
10
0
20
0
30
0
70
8
0
VERTEX
8
CONTOURS
10
0
20
0
30
2
70
32
0
VERTEX
8
CONTOURS
10
5
20
0
30
2
70
32
0
VERTEX
8
CONTOURS
10
10
20
0
30
2
70
32
0
SEQEND
8
CONTOURS
0
POLYLINE
8
CONTOURS
66
1
10
0
20
0
30
0
70
8
0
VERTEX
8
CONTOURS
10
0
20
10
30
4
70
32
0
VERTEX
8
CONTOURS
10
5
20
10
30
4
70
32
0
VERTEX
8
CONTOURS
10
10
20
10
30
4
70
32
0
SEQEND
8
CONTOURS
0
POLYLINE
8
BOUNDARY
66
1
10
0
20
0
30
0
70
9
0
VERTEX
8
BOUNDARY
10
0
20
0
30
0
70
32
0
VERTEX
8
BOUNDARY
10
10
20
0
30
0
70
32
0
VERTEX
8
BOUNDARY
10
10
20
10
30
0
70
32
0
VERTEX
8
BOUNDARY
10
0
20
10
30
0
70
32
0
SEQEND
8
BOUNDARY
0
LINE
8
ZERO_Z
10
20
20
0
30
0
11
25
21
0
31
0
0
TEXT
8
NOTES
10
20
20
2
30
0
40
1
1
EL +3.00
0
ENDSEC
0
EOF
